<svg width="80" height="80" viewBox="0 0 80 80" fill="none" xmlns="http://www.w3.org/2000/svg">
<rect width="80" height="80" rx="17" fill="white"/>
<path d="M65.9363 41.1398C66.3907 41.1378 66.8345 41.0019 67.2122 40.7492C67.59 40.4964 67.885 40.1379 68.0602 39.7183C68.2354 39.2988 68.2831 38.837 68.1973 38.3905C68.1115 37.944 67.896 37.5328 67.5778 37.2081L67.5742 37.2046L41.5432 11.1736L41.5422 11.1725C41.1089 10.7418 40.5227 10.5 39.9117 10.5C39.3007 10.5 38.7146 10.7418 38.2812 11.1725L38.2802 11.1736L12.2492 37.2046L12.2355 37.2182L12.223 37.2329C11.8441 37.6753 11.6461 38.2444 11.6686 38.8265C11.6911 39.4085 11.9324 39.9607 12.3443 40.3726C12.7561 40.7845 13.3083 41.0257 13.8903 41.0482C14.4724 41.0707 15.0415 40.8727 15.4839 40.4938L15.4987 40.4812L15.5124 40.4675L39.9027 16.0594L64.2929 40.4675L64.2945 40.4691C64.5106 40.6834 64.7669 40.853 65.0486 40.9681C65.3304 41.0831 65.632 41.1415 65.9363 41.1398ZM65.9363 41.1398C65.9361 41.1398 65.9359 41.1398 65.9357 41.1398L65.9336 40.6398L65.9365 41.1397C65.9365 41.1397 65.9364 41.1398 65.9363 41.1398Z" fill="#5744E3" stroke="#5744E3"/>
<path d="M39.9026 21.479L18.1498 43.3044V65.3653C18.1498 66.3269 18.5317 67.249 19.2117 67.9289C19.8916 68.6088 20.8137 68.9908 21.7752 68.9908H34.4644V50.8634H45.3408V68.9908H58.0299C58.9915 68.9908 59.9136 68.6088 60.5935 67.9289C61.2734 67.249 61.6554 66.3269 61.6554 65.3653V43.1775L39.9026 21.479Z" fill="#5744E3"/>
<path d="M57.408 20.8602C57.408 19.2586 58.7064 17.9602 60.308 17.9602V17.9602C61.9097 17.9602 63.2081 19.2586 63.2081 20.8602V33.0406H57.408V20.8602Z" fill="#5744E3"/>
</svg>
