<svg width="310" height="88" viewBox="0 0 310 88" fill="none" xmlns="http://www.w3.org/2000/svg">
<path d="M15.84 57.912H36V69H4.32V18.6H35.64V29.688H15.84V38.04H33.84V48.984H15.84V57.912Z" fill="black"/>
<path d="M87.616 69L73.72 18.6H85.816L94.528 53.88L104.248 18.6H113.608L123.328 53.88L132.04 18.6H144.136L130.24 69H117.136L108.928 39.264L100.72 69H87.616Z" fill="black"/>
<path d="M238.816 69L229.312 52.44H223.84V69H212.32V18.6H232.48C237.28 18.6 241.36 20.28 244.72 23.64C248.08 27 249.76 31.08 249.76 35.88C249.76 38.952 248.896 41.808 247.168 44.448C245.488 47.04 243.256 49.056 240.472 50.496L251.2 69H238.816ZM223.84 29.4V42.36H232.48C234.064 42.36 235.408 41.736 236.512 40.488C237.664 39.24 238.24 37.704 238.24 35.88C238.24 34.056 237.664 32.52 236.512 31.272C235.408 30.024 234.064 29.4 232.48 29.4H223.84Z" fill="black"/>
<path d="M282.48 18.6C289.44 18.6 295.248 21.024 299.904 25.872C304.608 30.672 306.96 36.648 306.96 43.8C306.96 50.952 304.608 56.952 299.904 61.8C295.248 66.6 289.44 69 282.48 69H262.32V18.6H282.48ZM282.48 57.912C286.464 57.912 289.68 56.64 292.128 54.096C294.624 51.504 295.872 48.072 295.872 43.8C295.872 39.528 294.624 36.12 292.128 33.576C289.68 30.984 286.464 29.688 282.48 29.688H273.84V57.912H282.48Z" fill="black"/>
<rect x="49" y="49" width="9" height="15" transform="rotate(-90 49 49)" fill="black"/>
<path d="M197.352 45.0509C197.757 45.0491 198.153 44.9279 198.49 44.7026C198.827 44.4771 199.09 44.1573 199.246 43.7831C199.403 43.409 199.445 42.9971 199.369 42.5989C199.292 42.2007 199.1 41.8339 198.816 41.5443L198.813 41.5408L176.373 19.1009L176.372 19.0998C175.985 18.7156 175.462 18.5 174.917 18.5C174.372 18.5 173.85 18.7156 173.463 19.0998L173.462 19.1009L151.022 41.5408L151.009 41.5544L150.996 41.5691C150.658 41.9637 150.481 42.4713 150.502 42.9904C150.522 43.5095 150.737 44.002 151.104 44.3693C151.471 44.7367 151.964 44.9519 152.483 44.9719C153.002 44.992 153.51 44.8154 153.904 44.4775L153.919 44.4648L153.933 44.4511L174.91 23.459L195.886 44.4511L195.888 44.4527C196.081 44.6438 196.309 44.7951 196.56 44.8977C196.812 45.0004 197.081 45.0524 197.352 45.0509ZM197.352 45.0509C197.352 45.0509 197.352 45.0509 197.352 45.0509L197.349 44.5509L197.352 45.0509C197.352 45.0509 197.352 45.0509 197.352 45.0509Z" fill="#5744E3" stroke="#5744E3"/>
<path d="M174.91 28.0334L156.158 46.8479V65.8655C156.158 66.6943 156.487 67.4893 157.073 68.0754C157.659 68.6615 158.454 68.9908 159.283 68.9908H170.222V53.3642H179.598V68.9908H190.536C191.365 68.9908 192.16 68.6615 192.746 68.0754C193.332 67.4893 193.661 66.6943 193.661 65.8655V46.7385L174.91 28.0334Z" fill="#5744E3"/>
<path d="M190 27.5C190 26.1193 191.119 25 192.5 25C193.881 25 195 26.1193 195 27.5V38H190V27.5Z" fill="#5744E3"/>
</svg>
